<?xml version="1.0" encoding="utf-8"?>
<!-- Generator: Adobe Illustrator 25.2.3, SVG Export Plug-In . SVG Version: 6.00 Build 0)  -->
<svg version="1.1" id="Capa_1" xmlns="http://www.w3.org/2000/svg" xmlns:xlink="http://www.w3.org/1999/xlink" x="0px" y="0px"
	 viewBox="0 0 20 20" style="enable-background:new 0 0 20 20;" xml:space="preserve">
<style type="text/css">
	.st0{fill:#0072CE;}
	.st1{fill:#FBD600;}
	.st2{fill:#DD0021;}
</style>
<path class="st0" d="M10.1,3.6c-2,0-3.7,1.7-3.7,3.7v0.2c0.5-0.1,1-0.2,1.3-0.2c0.8,0.1,1.8,0.8,2.8,1c0.9,0.2,2.1-0.1,3.4-0.5V7.3
	C13.8,5.3,12.2,3.6,10.1,3.6z"/>
<path class="st1" d="M14.9,7.4h-0.8H14c0,0.1,0,0.2,0,0.3v3.4c0,0.2,0,0.3,0,0.4h0.1h0.8c0.9,0,1.6-0.7,1.6-1.6V9
	C16.5,8.1,15.8,7.4,14.9,7.4z"/>
<path class="st2" d="M6.1,11.1V7.7c0-0.1,0-0.2,0-0.3H5.4C4.5,7.4,3.7,8.1,3.7,9v0.9c0,0.9,0.7,1.6,1.6,1.6h0.8
	C6.1,11.4,6.1,11.2,6.1,11.1z"/>
<g>
	<path d="M15.9,16.9c-1-0.8-2.1-1.3-3.2-1.5c-0.1,0-0.3,0-0.4,0.1c-0.6,0.7-1.4,1.2-2.3,1.2c-0.9,0-1.7-0.4-2.3-1.1
		c-0.1-0.1-0.2-0.2-0.4-0.1c-1.2,0.2-2.3,0.7-3.2,1.4c-0.4,0.3-0.6,0.9-0.5,1.4c0.2,0.5,0.7,0.9,1.3,0.9l10.1,0.1
		c0.5,0,1-0.4,1.2-0.9C16.5,17.8,16.4,17.2,15.9,16.9z M15.7,18.1c-0.1,0.2-0.2,0.4-0.5,0.4L5.1,18.3c-0.3,0-0.5-0.2-0.6-0.4
		c0-0.1-0.1-0.3,0.2-0.5c0.8-0.6,1.6-1,2.6-1.2C8,17,9,17.5,10.1,17.5c1.1,0,2.1-0.4,2.7-1.3c0.9,0.2,1.8,0.6,2.6,1.3c0,0,0,0,0,0
		C15.8,17.7,15.7,18,15.7,18.1z"/>
	<path d="M15.7,7.2V5.8c0-2.9-2.3-5.3-5.2-5.3H9.7c-2.9,0-5.2,2.4-5.2,5.3v1.4C3.8,7.5,3.3,8.2,3.3,9v0.9c0,0.6,0.2,1.1,0.6,1.4
		c0,1.6,1.3,2.8,2.9,2.8h1.1c0,0,0.1,0,0.1,0c0.1,0,0.1,0,0.2,0h0.5c0.5,0,0.9-0.4,0.9-0.8c0-0.4-0.3-0.8-0.8-0.8H8.2
		c-0.4,0-0.8,0.3-0.8,0.8c0,0,0,0,0,0H6.8c-1,0-1.9-0.7-2.1-1.6c0.2,0.1,0.4,0.1,0.6,0.1h0.5c0.1,0.2,0.1,0.4,0.2,0.7
		c0.1,0.2,0.3,0.3,0.5,0.2c0.2-0.1,0.3-0.3,0.2-0.5c-0.2-0.4-0.3-0.8-0.3-1.4V8.4c0,0,0,0,0,0c0,0,0.4-0.6,1.2-0.6
		c0.4,0,1,0.2,1.5,0.5c0.7,0.3,1.3,0.6,2,0.6c0.8,0,1.7-0.2,2.2-0.4V11c0,2-1.6,3.7-3.5,3.7H9.6c-0.2,0-0.4,0.2-0.4,0.4
		s0.2,0.4,0.4,0.4H10c2,0,3.8-1.6,4.2-3.6h0.7c1.1,0,2-0.9,2-2V9C16.9,8.2,16.4,7.5,15.7,7.2z M5.7,10.9v0.2l-0.4,0
		c-0.7,0-1.2-0.5-1.2-1.2V9c0-0.7,0.6-1.2,1.3-1.2h0.3V10.9z M12.3,8l-1.7-1.9C10.4,6,10.2,6,10,6.1c-0.2,0.1-0.2,0.4,0,0.5l1.3,1.5
		c0,0,0,0,0,0c-0.5,0-1.1-0.3-1.7-0.6C8.9,7.3,8.3,7,7.7,7c-0.5,0-0.9,0.2-1.2,0.4C6.6,5.6,8.2,4,10,4c2,0,3.5,1.6,3.5,3.7
		C13.3,7.7,12.8,7.9,12.3,8z M10,3.2C7.9,3.2,6.1,4.9,5.8,7H5.4c0,0-0.1,0-0.1,0V5.8c0-2.5,2-4.5,4.4-4.5h0.8c2.4,0,4.4,2.1,4.4,4.5
		V7c0,0,0,0,0,0h-0.7C13.9,4.8,12.2,3.2,10,3.2z M16.1,9.9c0,0.7-0.5,1.2-1.2,1.2h-0.5V7.8h0.5c0.7,0,1.2,0.5,1.2,1.2V9.9z"/>
	<path d="M8,9.8c-0.2,0-0.4,0.2-0.4,0.4s0.2,0.4,0.4,0.4h1.1c0.2,0,0.4-0.2,0.4-0.4S9.3,9.8,9.1,9.8H8z"/>
	<path d="M12.2,10.6c0.2,0,0.4-0.2,0.4-0.4s-0.2-0.4-0.4-0.4h-1.1c-0.2,0-0.4,0.2-0.4,0.4s0.2,0.4,0.4,0.4H12.2z"/>
</g>
</svg>
