<?xml version="1.0" encoding="UTF-8"?>
<svg width="64px" height="64px" viewBox="0 0 64 64" version="1.1" xmlns="http://www.w3.org/2000/svg" xmlns:xlink="http://www.w3.org/1999/xlink">
    <title>atm / images / icon/Web-App/L/phone</title>
    <defs>
        <path d="M23.8304456,6.4 C26.4768456,6.4 28.6304456,8.5536 28.6304456,11.2 L28.6304456,11.2 L28.6304456,20.8 C28.6304456,23.4464 26.4768456,25.6 23.8304456,25.6 L23.8304456,25.6 L20.6304456,25.6 C19.7472456,25.6 19.0304456,26.32 19.0304456,27.2 L19.0304456,27.2 L19.0304456,36.8 C19.0304456,37.68 19.7472456,38.4 20.6304456,38.4 L20.6304456,38.4 L23.8304456,38.4 C26.4768456,38.4 28.6304456,40.5536 28.6304456,43.2 L28.6304456,43.2 L28.6304456,52.8 C28.6304456,55.4464 26.4768456,57.6 23.8304456,57.6 L23.8304456,57.6 L20.6304456,57.6 C16.2304456,57.6 8.32324561,53.5936 6.58564561,38.5856 C6.48644561,37.7056 7.11364561,36.912 7.99044561,36.8096 C8.87044561,36.736 9.66404561,37.3408 9.76324561,38.2144 C11.6160456,54.2144 20.2624456,54.4 20.6304456,54.4 L20.6304456,54.4 L23.8304456,54.4 C24.7136456,54.4 25.4304456,53.68 25.4304456,52.8 L25.4304456,52.8 L25.4304456,43.2 C25.4304456,42.32 24.7136456,41.6 23.8304456,41.6 L23.8304456,41.6 L20.6304456,41.6 C17.9840456,41.6 15.8304456,39.4464 15.8304456,36.8 L15.8304456,36.8 L15.8304456,27.2 C15.8304456,24.5536 17.9840456,22.4 20.6304456,22.4 L20.6304456,22.4 L23.8304456,22.4 C24.7136456,22.4 25.4304456,21.68 25.4304456,20.8 L25.4304456,20.8 L25.4304456,11.2 C25.4304456,10.32 24.7136456,9.6 23.8304456,9.6 L23.8304456,9.6 L20.5753809,9.6009231 C19.7497759,9.62536896 11.5604616,10.2656 9.76324561,25.7856 C9.66404561,26.6624 8.87364561,27.2736 7.99044561,27.1904 C7.11364561,27.088 6.48644561,26.2944 6.58564561,25.4144 C8.32324561,10.4064 16.2304456,6.4 20.6304456,6.4 L20.6304456,6.4 Z M52.3046719,10.24064 C52.5126719,10.51904 57.4246719,17.23904 57.4246719,32.00064 C57.4246719,46.76224 52.5126719,53.48224 52.3046719,53.76064 C51.9910719,54.17664 51.5110719,54.40064 51.0246719,54.40064 C50.6886719,54.40064 50.3526719,54.29824 50.0646719,54.08064 C49.3574719,53.54944 49.2134719,52.54784 49.7446719,51.84064 C49.7830719,51.78304 54.2246719,45.58464 54.2246719,32.00064 C54.2246719,18.41664 49.7830719,12.21504 49.7414719,12.15424 C49.2198719,11.44384 49.3670719,10.44224 50.0742719,9.91744 C50.7814719,9.39264 51.7798719,9.53344 52.3046719,10.24064 Z M44.3549119,16.7136 C44.4989119,16.9248 47.8237119,22.032 47.8237119,32 C47.8237119,41.968 44.4989119,47.0752 44.3549119,47.2864 C44.0477119,47.7504 43.5421119,48 43.0237119,48 C42.7197119,48 42.4125119,47.9136 42.1373119,47.7312 C41.4013119,47.2416 41.2029119,46.2464 41.6925119,45.5136 C41.7181119,45.4752 44.6237119,40.9152 44.6237119,32 C44.6237119,23.0848 41.7181119,18.5248 41.6893119,18.48 C41.2093119,17.744 41.4109119,16.752 42.1469119,16.2688 C42.8797119,15.7792 43.8685119,15.9776 44.3549119,16.7136 Z M36.4547519,21.68544 C36.5283519,21.82944 38.2243519,25.30144 38.2243519,31.99904 C38.2243519,38.69984 36.5283519,42.17184 36.4547519,42.31584 C36.1763519,42.87584 35.6099519,43.19904 35.0243519,43.19904 C34.7843519,43.19904 34.5379519,43.14784 34.3107519,43.03264 C33.5203519,42.63584 33.2003519,41.68224 33.5875519,40.89504 C33.6035519,40.86304 35.0243519,37.86464 35.0243519,31.99904 C35.0243519,26.13344 33.6035519,23.13824 33.5875519,23.10624 C33.2067519,22.31584 33.5299519,21.35584 34.3203519,20.96864 C35.1107519,20.58784 36.0611519,20.89824 36.4547519,21.68544 Z" id="path-1"></path>
    </defs>
    <g id="Page-1" stroke="none" stroke-width="1" fill="none" fill-rule="evenodd">
        <g id="Desktop-HD" transform="translate(-413.000000, -502.000000)">
            <g id="atm-/-images-/-icon/Web-App/L/phone" transform="translate(413.000000, 502.000000)">
                <mask id="mask-2" fill="white">
                    <use xlink:href="#path-1"></use>
                </mask>
                <use id="Icon" fill="#050005" fill-rule="evenodd" xlink:href="#path-1"></use>
                <g id="atm/x_assets/color/black" mask="url(#mask-2)" fill="#333333" fill-rule="evenodd">
                    <rect id="Rectangle" x="0" y="0" width="64" height="64"></rect>
                </g>
            </g>
        </g>
    </g>
</svg>