<?xml version="1.0" encoding="utf-8"?>
<!-- Generator: Adobe Illustrator 24.1.0, SVG Export Plug-In . SVG Version: 6.00 Build 0)  -->
<svg version="1.1" id="Capa_1" xmlns="http://www.w3.org/2000/svg" xmlns:xlink="http://www.w3.org/1999/xlink" x="0px" y="0px"
	 viewBox="0 0 20 20" style="enable-background:new 0 0 20 20;" xml:space="preserve">
<style type="text/css">
	.st0{fill:#333333;}
</style>
<g>
	<path class="st0" d="M7,8c0,1.7,1.3,3,3,3s3-1.3,3-3s-1.3-3-3-3S7,6.4,7,8z M12,8c0,1.1-0.9,2-2,2S8,9.1,8,8s0.9-2,2-2S12,6.9,12,8
		z"/>
	<path class="st0" d="M10,2C6.7,2,4,4.8,4,8c0,3.1,3,7.3,4.8,9.4C9.1,17.8,9.5,18,10,18c0,0,0,0,0,0c0.4,0,0.9-0.2,1.1-0.5
		c0.9-1.1,2.3-2.8,3.3-4.7c0.1-0.2,0-0.5-0.2-0.7c-0.2-0.1-0.5,0-0.7,0.2c-1.1,1.9-2.5,3.7-3.2,4.5C10.3,16.9,10.1,17,10,17
		c0,0,0,0,0,0c-0.1,0-0.3-0.1-0.4-0.2C8.2,15.1,5,10.9,5,8c0-2.7,2.3-5,5-5c2.7,0,5,2.3,5,5c0,0.1,0,0.3,0,0.4
		c0,0.3,0.2,0.5,0.4,0.5c0.3,0,0.5-0.2,0.5-0.4c0-0.2,0-0.4,0-0.6C16,4.8,13.3,2,10,2z"/>
</g>
</svg>
