<?xml version="1.0" encoding="UTF-8"?>
<svg width="64px" height="64px" viewBox="0 0 64 64" version="1.1" xmlns="http://www.w3.org/2000/svg" xmlns:xlink="http://www.w3.org/1999/xlink">
    <title>atm / images / icon/Web-App/L/delivery</title>
    <defs>
        <path d="M52.8,48 L47.1104,48 C46,46.096 43.9584,44.8 41.6,44.8 L41.6,32 L54.4,32 L54.4,46.4 C54.4,47.28 53.6832,48 52.8,48 L52.8,48 Z M41.6,54.4 C39.8368,54.4 38.4,52.9664 38.4,51.2 C38.4,49.4336 39.8368,48 41.6,48 C43.3632,48 44.8,49.4336 44.8,51.2 C44.8,52.9664 43.3632,54.4 41.6,54.4 L41.6,54.4 Z M43.2,19.2 C44.528,19.2 46.592,20.0576 47.5328,20.9952 L52.6048,26.0672 C53.2128,26.6752 53.76,27.7536 54.0896,28.8 L41.6,28.8 L41.6,19.2 L43.2,19.2 Z M19.2,54.4 C17.4368,54.4 16,52.9664 16,51.2 C16,49.4336 17.4368,48 19.2,48 C20.9632,48 22.4,49.4336 22.4,51.2 C22.4,52.9664 20.9632,54.4 19.2,54.4 L19.2,54.4 Z M54.8672,23.8048 L49.7952,18.7328 C48.2624,17.2 45.3664,16 43.2,16 L41.6,16 L41.6,11.2 C41.6,8.5536 39.4464,6.4 36.8,6.4 L11.2,6.4 C8.5536,6.4 6.4,8.5536 6.4,11.2 L6.4,30.4 C6.4,31.2832 7.1168,32 8,32 C8.8832,32 9.6,31.2832 9.6,30.4 L9.6,11.2 C9.6,10.32 10.3168,9.6 11.2,9.6 L36.8,9.6 C37.6832,9.6 38.4,10.32 38.4,11.2 L38.4,19.2 L14.4,19.2 C13.5168,19.2 12.8,19.9168 12.8,20.8 C12.8,21.6832 13.5168,22.4 14.4,22.4 L38.4,22.4 L38.4,45.6896 C37.4432,46.2496 36.6496,47.04 36.0896,48 L24.7104,48 C23.6,46.096 21.5584,44.8 19.2,44.8 C16.8416,44.8 14.8,46.096 13.6896,48 L11.2,48 C10.3168,48 9.6,47.28 9.6,46.4 L9.6,43.2 C9.6,42.3168 8.8832,41.6 8,41.6 C7.1168,41.6 6.4,42.3168 6.4,43.2 L6.4,46.4 C6.4,49.0464 8.5536,51.2 11.2,51.2 L12.8,51.2 C12.8,54.7296 15.6704,57.6 19.2,57.6 C22.7296,57.6 25.6,54.7296 25.6,51.2 L35.2,51.2 C35.2,54.7296 38.0704,57.6 41.6,57.6 C45.1296,57.6 48,54.7296 48,51.2 L52.8,51.2 C55.4464,51.2 57.6,49.0464 57.6,46.4 L57.6,30.4 C57.6,28.2336 56.4,25.3376 54.8672,23.8048 L54.8672,23.8048 Z" id="path-1"></path>
    </defs>
    <g id="Page-1" stroke="none" stroke-width="1" fill="none" fill-rule="evenodd">
        <g id="Desktop-HD" transform="translate(-199.000000, -502.000000)">
            <g id="atm-/-images-/-icon/Web-App/L/delivery" transform="translate(199.000000, 502.000000)">
                <mask id="mask-2" fill="white">
                    <use xlink:href="#path-1"></use>
                </mask>
                <use id="Icon" fill="#050005" fill-rule="evenodd" xlink:href="#path-1"></use>
                <g id="atm/x_assets/color/black" mask="url(#mask-2)" fill="#333333" fill-rule="evenodd">
                    <rect id="Rectangle" x="0" y="0" width="64" height="64"></rect>
                </g>
            </g>
        </g>
    </g>
</svg>